# xmcd
#
# Track frame offsets: 
#        150
#        13688
#        29868
#        42698
#        51176
#        64356
#        75879
#        86102
#        97325
#        111892
#        124103
#        135932
#        146686
#        158572
#        173051
#        188029
#        199777
#        212412
#        226022
#        240869
#
# Disc length: 3373 seconds
#
# Revision: 1
# Processed by: cddbd v1.5.2PL0 Copyright (c) Steve Scherf et al.
# Submitted via: ExactAudioCopyFreeDBPlugin 1.0
#
DISCID=0e0d2b14
DTITLE=Gene Pitney - Someting's Gotten Hold Of My Heart - The Collecti
DTITLE=on [CD1]
DYEAR=2005
DGENRE=Pop
TTITLE0=Twenty Four Hours From Tulsa
TTITLE1=Something's Gotten Hold Of My Heart
TTITLE2=That Girl Belongs To Yesterday
TTITLE3=(I Wanna) Love My Life Away
TTITLE4=Town Without Pity
TTITLE5=It Hurts To Be In Love
TTITLE6=I'm Gonna Be Strong
TTITLE7=I Must Be Seeing Things
TTITLE8=Looking Thru' The Eyes Of Love
TTITLE9=Princess In Rags
TTITLE10=Backstage (I'm Lonely)
TTITLE11=Nobody Needs Your Love
TTITLE12=Just One Smile
TTITLE13=Somewhere In The Country
TTITLE14=Yours Until Tomorrow
TTITLE15=Maria Elena (I'm Going To War)
TTITLE16=A Street Called Hope
TTITLE17=Shady Lady
TTITLE18=She's A Heartbreaker
TTITLE19=She Lets Her Hair Down (Early In The Morning)
EXTD=Release year: 2005\nRelease country: UK\nRelease label: Music Clu
EXTD=b Deluxe\nRelease catalog#: MCDLX009A\nBarcode: 5014797670099
EXTT0=
EXTT1=
EXTT2=
EXTT3=
EXTT4=
EXTT5=
EXTT6=
EXTT7=
EXTT8=
EXTT9=
EXTT10=
EXTT11=
EXTT12=
EXTT13=
EXTT14=
EXTT15=
EXTT16=
EXTT17=
EXTT18=
EXTT19=
PLAYORDER=
